<?xml version="1.0" encoding="UTF-8"?>
<!-- Generated by Pixelmator Pro 3.6.11 -->
<svg width="64" height="64" viewBox="0 0 64 64" xmlns="http://www.w3.org/2000/svg">
    <g id="g1">
        <linearGradient id="linearGradient1" x1="32.564689" y1="64.081361" x2="32.517739" y2="0.548444" gradientUnits="userSpaceOnUse">
            <stop offset="0" stop-color="#fbc2eb" stop-opacity="1"/>
            <stop offset="1" stop-color="#a6c1ee" stop-opacity="1"/>
        </linearGradient>
        <path id="-" fill="url(#linearGradient1)" fill-rule="evenodd" stroke="#ffffff" stroke-width="0.18677" stroke-opacity="0.336392" d="M 0.124514 58.132294 C 0.124514 61.304173 2.695828 63.875488 5.867704 63.875488 L 58.132294 63.875488 C 61.304169 63.875488 63.875484 61.304173 63.875484 58.132294 L 63.875484 5.867706 C 63.875484 2.695831 61.304169 0.124516 58.132294 0.124516 L 5.867704 0.124516 C 2.695828 0.124516 0.124514 2.695831 0.124514 5.867706 Z"/>
        <g id="icons8-locationoff">
            <path id="path1" fill="#64b5f6" stroke="none" d="M 32 54.785992 C 19.467705 54.785992 9.214007 44.532295 9.214007 32 C 9.214007 19.467701 19.467705 9.214008 32 9.214008 C 44.532299 9.214008 54.785992 19.467701 54.785992 32 C 54.785992 44.532295 44.532299 54.785992 32 54.785992 Z M 32 14.277561 C 22.252659 14.277561 14.277561 22.252659 14.277561 32 C 14.277561 41.747341 22.252659 49.722439 32 49.722439 C 41.747341 49.722439 49.722439 41.747341 49.722439 32 C 49.722439 22.252659 41.747341 14.277561 32 14.277561 Z"/>
            <path id="path2" fill="#2196f3" stroke="none" d="M 29.468224 5.416344 L 34.531776 5.416344 L 34.531776 18.075226 L 29.468224 18.075226 Z M 29.468224 45.924774 L 34.531776 45.924774 L 34.531776 58.583656 L 29.468224 58.583656 Z M 5.416342 29.468224 L 18.075228 29.468224 L 18.075228 34.531776 L 5.416342 34.531776 Z M 45.924774 29.468224 L 58.583656 29.468224 L 58.583656 34.531776 L 45.924774 34.531776 Z"/>
            <path id="path3" fill="#ff3d00" stroke="none" d="M 38.709209 35.671074 L 36.050842 38.329445 L 25.290792 27.569389 L 27.949156 24.911026 L 38.709209 35.671074 Z"/>
            <path id="path4" fill="#ff3d00" stroke="none" d="M 27.949156 38.329445 L 25.290792 35.671074 L 36.050842 24.911026 L 38.709209 27.569389 L 27.949156 38.329445 Z"/>
        </g>
    </g>
</svg>
