<?xml version="1.0" encoding="UTF-8"?>
<!-- Generated by Pixelmator Pro 3.6.11 -->
<svg width="256" height="256" viewBox="0 0 256 256" xmlns="http://www.w3.org/2000/svg">
    <g id="g1">
        <linearGradient id="linearGradient1" x1="130.258758" y1="256.325445" x2="130.070957" y2="2.193775" gradientUnits="userSpaceOnUse">
            <stop offset="0" stop-color="#fbc2eb" stop-opacity="1"/>
            <stop offset="1" stop-color="#a6c1ee" stop-opacity="1"/>
        </linearGradient>
        <path id="-" fill="url(#linearGradient1)" fill-rule="evenodd" stroke="#ffffff" stroke-width="0.747082" stroke-opacity="0.336392" d="M 0.498054 232.529175 C 0.498054 245.21669 10.783311 255.501953 23.470818 255.501953 L 232.529175 255.501953 C 245.216675 255.501953 255.501938 245.21669 255.501938 232.529175 L 255.501938 23.470825 C 255.501938 10.783325 245.216675 0.498062 232.529175 0.498062 L 23.470818 0.498062 C 10.783311 0.498062 0.498054 10.783325 0.498054 23.470825 Z"/>
        <g id="icons8-locationoff">
            <path id="path1" fill="#64b5f6" stroke="none" d="M 128 219.143967 C 77.870819 219.143967 36.85603 178.129181 36.85603 128 C 36.85603 77.870804 77.870819 36.856033 128 36.856033 C 178.129196 36.856033 219.143967 77.870804 219.143967 128 C 219.143967 178.129181 178.129196 219.143967 128 219.143967 Z M 128 57.110245 C 89.010635 57.110245 57.110245 89.010635 57.110245 128 C 57.110245 166.989365 89.010635 198.889755 128 198.889755 C 166.989365 198.889755 198.889755 166.989365 198.889755 128 C 198.889755 89.010635 166.989365 57.110245 128 57.110245 Z"/>
            <path id="path2" fill="#2196f3" stroke="none" d="M 117.872894 21.665375 L 138.127106 21.665375 L 138.127106 72.300903 L 117.872894 72.300903 Z M 117.872894 183.699097 L 138.127106 183.699097 L 138.127106 234.334625 L 117.872894 234.334625 Z M 21.665369 117.872894 L 72.300911 117.872894 L 72.300911 138.127106 L 21.665369 138.127106 Z M 183.699097 117.872894 L 234.334625 117.872894 L 234.334625 138.127106 L 183.699097 138.127106 Z"/>
            <path id="path3" fill="#ff3d00" stroke="none" d="M 154.836838 142.684296 L 144.203369 153.31778 L 101.16317 110.277557 L 111.796623 99.644104 L 154.836838 142.684296 Z"/>
            <path id="path4" fill="#ff3d00" stroke="none" d="M 111.796623 153.31778 L 101.16317 142.684296 L 144.203369 99.644104 L 154.836838 110.277557 L 111.796623 153.31778 Z"/>
        </g>
    </g>
</svg>
