<?xml version="1.0" encoding="UTF-8"?>
<!-- Generated by Pixelmator Pro 3.6.11 -->
<svg width="16" height="16" viewBox="0 0 16 16" xmlns="http://www.w3.org/2000/svg">
    <g id="g1">
        <linearGradient id="linearGradient1" x1="8.141172" y1="16.02034" x2="8.129435" y2="0.137111" gradientUnits="userSpaceOnUse">
            <stop offset="0" stop-color="#fbc2eb" stop-opacity="1"/>
            <stop offset="1" stop-color="#a6c1ee" stop-opacity="1"/>
        </linearGradient>
        <path id="-" fill="url(#linearGradient1)" fill-rule="evenodd" stroke="#ffffff" stroke-width="0.046693" stroke-opacity="0.336392" d="M 0.031128 14.533073 C 0.031128 15.326043 0.673957 15.968872 1.466926 15.968872 L 14.533073 15.968872 C 15.326042 15.968872 15.968871 15.326043 15.968871 14.533073 L 15.968871 1.466927 C 15.968871 0.673958 15.326042 0.031129 14.533073 0.031129 L 1.466926 0.031129 C 0.673957 0.031129 0.031128 0.673958 0.031128 1.466927 Z"/>
        <g id="icons8-locationoff">
            <path id="path1" fill="#64b5f6" stroke="none" d="M 8 13.696498 C 4.866926 13.696498 2.303502 11.133074 2.303502 8 C 2.303502 4.866925 4.866926 2.303502 8 2.303502 C 11.133075 2.303502 13.696498 4.866925 13.696498 8 C 13.696498 11.133074 11.133075 13.696498 8 13.696498 Z M 8 3.56939 C 5.563165 3.56939 3.56939 5.563165 3.56939 8 C 3.56939 10.436835 5.563165 12.43061 8 12.43061 C 10.436835 12.43061 12.43061 10.436835 12.43061 8 C 12.43061 5.563165 10.436835 3.56939 8 3.56939 Z"/>
            <path id="path2" fill="#2196f3" stroke="none" d="M 7.367056 1.354086 L 8.632944 1.354086 L 8.632944 4.518806 L 7.367056 4.518806 Z M 7.367056 11.481194 L 8.632944 11.481194 L 8.632944 14.645914 L 7.367056 14.645914 Z M 1.354086 7.367056 L 4.518807 7.367056 L 4.518807 8.632944 L 1.354086 8.632944 Z M 11.481194 7.367056 L 14.645914 7.367056 L 14.645914 8.632944 L 11.481194 8.632944 Z"/>
            <path id="path3" fill="#ff3d00" stroke="none" d="M 9.677302 8.917768 L 9.012711 9.582361 L 6.322698 6.892347 L 6.987289 6.227757 L 9.677302 8.917768 Z"/>
            <path id="path4" fill="#ff3d00" stroke="none" d="M 6.987289 9.582361 L 6.322698 8.917768 L 9.012711 6.227757 L 9.677302 6.892347 L 6.987289 9.582361 Z"/>
        </g>
    </g>
</svg>
