<?xml version="1.0" encoding="UTF-8"?>
<!-- Generated by Pixelmator Pro 3.6.11 -->
<svg width="128" height="128" viewBox="0 0 128 128" xmlns="http://www.w3.org/2000/svg">
    <g id="g1">
        <linearGradient id="linearGradient1" x1="65.129379" y1="128.162723" x2="65.035478" y2="1.096888" gradientUnits="userSpaceOnUse">
            <stop offset="0" stop-color="#fbc2eb" stop-opacity="1"/>
            <stop offset="1" stop-color="#a6c1ee" stop-opacity="1"/>
        </linearGradient>
        <path id="-" fill="url(#linearGradient1)" fill-rule="evenodd" stroke="#ffffff" stroke-width="0.373541" stroke-opacity="0.336392" d="M 0.249027 116.264587 C 0.249027 122.608345 5.391655 127.750977 11.735409 127.750977 L 116.264587 127.750977 C 122.608337 127.750977 127.750969 122.608345 127.750969 116.264587 L 127.750969 11.735413 C 127.750969 5.391663 122.608337 0.249031 116.264587 0.249031 L 11.735409 0.249031 C 5.391655 0.249031 0.249027 5.391663 0.249027 11.735413 Z"/>
        <g id="icons8-locationoff">
            <path id="path1" fill="#64b5f6" stroke="none" d="M 64 109.571983 C 38.93541 109.571983 18.428015 89.06459 18.428015 64 C 18.428015 38.935402 38.93541 18.428017 64 18.428017 C 89.064598 18.428017 109.571983 38.935402 109.571983 64 C 109.571983 89.06459 89.064598 109.571983 64 109.571983 Z M 64 28.555122 C 44.505318 28.555122 28.555122 44.505318 28.555122 64 C 28.555122 83.494682 44.505318 99.444878 64 99.444878 C 83.494682 99.444878 99.444878 83.494682 99.444878 64 C 99.444878 44.505318 83.494682 28.555122 64 28.555122 Z"/>
            <path id="path2" fill="#2196f3" stroke="none" d="M 58.936447 10.832687 L 69.063553 10.832687 L 69.063553 36.150452 L 58.936447 36.150452 Z M 58.936447 91.849548 L 69.063553 91.849548 L 69.063553 117.167313 L 58.936447 117.167313 Z M 10.832685 58.936447 L 36.150455 58.936447 L 36.150455 69.063553 L 10.832685 69.063553 Z M 91.849548 58.936447 L 117.167313 58.936447 L 117.167313 69.063553 L 91.849548 69.063553 Z"/>
            <path id="path3" fill="#ff3d00" stroke="none" d="M 77.418419 71.342148 L 72.101685 76.65889 L 50.581585 55.138779 L 55.898312 49.822052 L 77.418419 71.342148 Z"/>
            <path id="path4" fill="#ff3d00" stroke="none" d="M 55.898312 76.65889 L 50.581585 71.342148 L 72.101685 49.822052 L 77.418419 55.138779 L 55.898312 76.65889 Z"/>
        </g>
    </g>
</svg>
