<?xml version="1.0" encoding="UTF-8"?>
<!-- Generated by Pixelmator Pro 3.6.11 -->
<svg width="1028" height="1028" viewBox="0 0 1028 1028" xmlns="http://www.w3.org/2000/svg">
    <g id="g1">
        <linearGradient id="linearGradient1" x1="523.070325" y1="1029.306867" x2="522.316185" y2="8.809379" gradientUnits="userSpaceOnUse">
            <stop offset="0" stop-color="#fbc2eb" stop-opacity="1"/>
            <stop offset="1" stop-color="#a6c1ee" stop-opacity="1"/>
        </linearGradient>
        <path id="-" fill="url(#linearGradient1)" fill-rule="evenodd" stroke="#ffffff" stroke-width="3" stroke-opacity="0.336392" d="M 2 933.75 C 2 984.698242 43.301731 1026 94.25 1026 L 933.75 1026 C 984.698242 1026 1026 984.698242 1026 933.75 L 1026 94.25 C 1026 43.301758 984.698242 2 933.75 2 L 94.25 2 C 43.301731 2 2 43.301758 2 94.25 Z"/>
        <g id="icons8-locationoff">
            <path id="path1" fill="#64b5f6" stroke="none" d="M 514 880 C 312.700012 880 148 715.300049 148 514 C 148 312.699951 312.700012 148 514 148 C 715.300049 148 880 312.699951 880 514 C 880 715.300049 715.300049 880 514 880 Z M 514 229.333313 C 357.433319 229.333313 229.333328 357.433289 229.333328 514 C 229.333328 670.56665 357.433319 798.666687 514 798.666687 C 670.566711 798.666687 798.666687 670.56665 798.666687 514 C 798.666687 357.433289 670.566711 229.333313 514 229.333313 Z"/>
            <path id="path2" fill="#2196f3" stroke="none" d="M 473.333344 87 L 554.666687 87 L 554.666687 290.333313 L 473.333344 290.333313 Z M 473.333344 737.666626 L 554.666687 737.666626 L 554.666687 941 L 473.333344 941 Z M 87 473.333313 L 290.333344 473.333313 L 290.333344 554.666626 L 87 554.666626 Z M 737.666687 473.333313 L 941 473.333313 L 941 554.666626 L 737.666687 554.666626 Z"/>
            <path id="path3" fill="#ff3d00" stroke="none" d="M 621.766663 572.966675 L 579.066711 615.666626 L 406.233337 442.833313 L 448.933319 400.133301 L 621.766663 572.966675 Z"/>
            <path id="path4" fill="#ff3d00" stroke="none" d="M 448.933319 615.666626 L 406.233337 572.966675 L 579.066711 400.133301 L 621.766663 442.833313 L 448.933319 615.666626 Z"/>
        </g>
    </g>
</svg>
