<?xml version="1.0" encoding="UTF-8"?>
<!-- Generated by Pixelmator Pro 3.6.11 -->
<svg width="32" height="32" viewBox="0 0 32 32" xmlns="http://www.w3.org/2000/svg">
    <g id="g1">
        <linearGradient id="linearGradient1" x1="16.282345" y1="32.040681" x2="16.25887" y2="0.274222" gradientUnits="userSpaceOnUse">
            <stop offset="0" stop-color="#fbc2eb" stop-opacity="1"/>
            <stop offset="1" stop-color="#a6c1ee" stop-opacity="1"/>
        </linearGradient>
        <path id="-" fill="url(#linearGradient1)" fill-rule="evenodd" stroke="#ffffff" stroke-width="0.093385" stroke-opacity="0.336392" d="M 0.062257 29.066147 C 0.062257 30.652086 1.347914 31.937744 2.933852 31.937744 L 29.066147 31.937744 C 30.652084 31.937744 31.937742 30.652086 31.937742 29.066147 L 31.937742 2.933853 C 31.937742 1.347916 30.652084 0.062258 29.066147 0.062258 L 2.933852 0.062258 C 1.347914 0.062258 0.062257 1.347916 0.062257 2.933853 Z"/>
        <g id="icons8-locationoff">
            <path id="path1" fill="#64b5f6" stroke="none" d="M 16 27.392996 C 9.733852 27.392996 4.607004 22.266148 4.607004 16 C 4.607004 9.73385 9.733852 4.607004 16 4.607004 C 22.26615 4.607004 27.392996 9.73385 27.392996 16 C 27.392996 22.266148 22.26615 27.392996 16 27.392996 Z M 16 7.138781 C 11.126329 7.138781 7.138781 11.126329 7.138781 16 C 7.138781 20.873671 11.126329 24.861219 16 24.861219 C 20.873671 24.861219 24.861219 20.873671 24.861219 16 C 24.861219 11.126329 20.873671 7.138781 16 7.138781 Z"/>
            <path id="path2" fill="#2196f3" stroke="none" d="M 14.734112 2.708172 L 17.265888 2.708172 L 17.265888 9.037613 L 14.734112 9.037613 Z M 14.734112 22.962387 L 17.265888 22.962387 L 17.265888 29.291828 L 14.734112 29.291828 Z M 2.708171 14.734112 L 9.037614 14.734112 L 9.037614 17.265888 L 2.708171 17.265888 Z M 22.962387 14.734112 L 29.291828 14.734112 L 29.291828 17.265888 L 22.962387 17.265888 Z"/>
            <path id="path3" fill="#ff3d00" stroke="none" d="M 19.354605 17.835537 L 18.025421 19.164722 L 12.645396 13.784695 L 13.974578 12.455513 L 19.354605 17.835537 Z"/>
            <path id="path4" fill="#ff3d00" stroke="none" d="M 13.974578 19.164722 L 12.645396 17.835537 L 18.025421 12.455513 L 19.354605 13.784695 L 13.974578 19.164722 Z"/>
        </g>
    </g>
</svg>
