<?xml version="1.0" encoding="UTF-8"?>
<!-- Generated by Pixelmator Pro 3.6.11 -->
<svg width="512" height="512" viewBox="0 0 512 512" xmlns="http://www.w3.org/2000/svg">
    <g id="g1">
        <linearGradient id="linearGradient1" x1="260.517516" y1="512.650891" x2="260.141913" y2="4.387551" gradientUnits="userSpaceOnUse">
            <stop offset="0" stop-color="#fbc2eb" stop-opacity="1"/>
            <stop offset="1" stop-color="#a6c1ee" stop-opacity="1"/>
        </linearGradient>
        <path id="-" fill="url(#linearGradient1)" fill-rule="evenodd" stroke="#ffffff" stroke-width="1.494163" stroke-opacity="0.336392" d="M 0.996109 465.05835 C 0.996109 490.43338 21.566622 511.003906 46.941635 511.003906 L 465.05835 511.003906 C 490.43335 511.003906 511.003876 490.43338 511.003876 465.05835 L 511.003876 46.94165 C 511.003876 21.56665 490.43335 0.996124 465.05835 0.996124 L 46.941635 0.996124 C 21.566622 0.996124 0.996109 21.56665 0.996109 46.94165 Z"/>
        <g id="icons8-locationoff">
            <path id="path1" fill="#64b5f6" stroke="none" d="M 256 438.287933 C 155.741638 438.287933 73.712059 356.258362 73.712059 256 C 73.712059 155.741608 155.741638 73.712067 256 73.712067 C 356.258392 73.712067 438.287933 155.741608 438.287933 256 C 438.287933 356.258362 356.258392 438.287933 256 438.287933 Z M 256 114.22049 C 178.021271 114.22049 114.22049 178.021271 114.22049 256 C 114.22049 333.978729 178.021271 397.77951 256 397.77951 C 333.978729 397.77951 397.77951 333.978729 397.77951 256 C 397.77951 178.021271 333.978729 114.22049 256 114.22049 Z"/>
            <path id="path2" fill="#2196f3" stroke="none" d="M 235.745789 43.33075 L 276.254211 43.33075 L 276.254211 144.601807 L 235.745789 144.601807 Z M 235.745789 367.398193 L 276.254211 367.398193 L 276.254211 468.66925 L 235.745789 468.66925 Z M 43.330738 235.745789 L 144.601822 235.745789 L 144.601822 276.254211 L 43.330738 276.254211 Z M 367.398193 235.745789 L 468.66925 235.745789 L 468.66925 276.254211 L 367.398193 276.254211 Z"/>
            <path id="path3" fill="#ff3d00" stroke="none" d="M 309.673676 285.368591 L 288.406738 306.635559 L 202.32634 220.555115 L 223.593246 199.288208 L 309.673676 285.368591 Z"/>
            <path id="path4" fill="#ff3d00" stroke="none" d="M 223.593246 306.635559 L 202.32634 285.368591 L 288.406738 199.288208 L 309.673676 220.555115 L 223.593246 306.635559 Z"/>
        </g>
    </g>
</svg>
